<?xml version="1.0" standalone="no"?>
<!DOCTYPE svg PUBLIC "-//W3C//DTD SVG 20010904//EN"
 "http://www.w3.org/TR/2001/REC-SVG-20010904/DTD/svg10.dtd">
<svg version="1.0" xmlns="http://www.w3.org/2000/svg"
 width="450.000000pt" height="500.000000pt" viewBox="0 0 450.000000 500.000000"
 preserveAspectRatio="xMidYMid meet">
<metadata>
Created by potrace 1.10, written by Peter Selinger 2001-2011
</metadata>
<g transform="translate(0.000000,500.000000) scale(0.050000,-0.050000)"
fill="#a52a2a" stroke="none">
<path d="M3891 8468 c-1967 -355 -2883 -2703 -1685 -4319 413 -558 1030 -929
1764 -1060 38 -7 40 -23 40 -338 l0 -331 -325 0 -325 0 0 -392 0 -392 325 7
325 7 -7 -245 -7 -245 392 0 392 0 0 246 0 246 320 -9 320 -8 0 393 0 392
-320 0 -320 0 0 330 c0 325 1 329 45 338 1183 241 2016 1041 2244 2156 41 204
43 851 3 1059 -282 1456 -1713 2430 -3181 2165z m901 -170 c12 -10 44 -18 70
-18 123 -1 138 -4 128 -20 -6 -10 5 -17 25 -17 19 0 53 -5 75 -10 22 -5 52
-11 66 -11 15 -1 22 -9 17 -17 -5 -8 15 -17 44 -19 30 -2 80 -17 112 -34 32
-16 66 -25 75 -20 9 6 16 1 16 -9 0 -11 20 -23 45 -27 26 -4 42 -19 39 -35 -5
-23 -1 -23 25 -2 23 19 31 19 31 2 0 -13 8 -18 19 -12 10 7 28 -4 39 -24 12
-19 21 -28 21 -19 1 8 19 6 42 -6 23 -13 34 -32 26 -46 -7 -13 -6 -17 3 -9 9
8 34 -1 55 -20 22 -19 43 -33 47 -30 21 13 49 3 38 -15 -7 -11 3 -20 21 -20
35 0 54 -16 261 -215 71 -69 138 -125 149 -125 10 0 17 -11 14 -23 -3 -13 15
-34 40 -47 25 -13 40 -28 34 -34 -6 -6 17 -39 52 -74 36 -35 58 -75 52 -91 -7
-18 -1 -25 15 -19 16 6 44 -29 74 -91 26 -56 53 -101 61 -101 12 0 61 -121 56
-138 -1 -4 8 -14 20 -21 12 -8 26 -31 30 -52 9 -40 44 -147 73 -219 27 -69 46
-139 42 -155 -2 -8 5 -15 17 -15 14 0 13 -13 -1 -40 -17 -31 -16 -39 4 -35 16
3 26 -15 25 -50 0 -30 6 -55 15 -55 8 0 10 -12 5 -27 -6 -14 -1 -52 10 -85 20
-54 19 -55 -9 -19 -25 32 -30 33 -30 6 0 -18 9 -38 21 -46 26 -16 16 -209 -11
-209 -11 0 -7 -9 9 -19 24 -15 24 -23 1 -51 -23 -28 -23 -36 1 -52 25 -15 25
-21 -1 -38 -24 -15 -24 -19 -3 -20 23 0 23 -5 2 -32 -22 -26 -22 -34 2 -50 24
-16 23 -24 -10 -48 -21 -17 -29 -30 -18 -30 11 0 20 -29 21 -65 0 -36 7 -87
16 -113 11 -32 9 -44 -5 -35 -28 17 -47 -37 -21 -63 12 -12 13 -32 4 -47 -10
-15 -19 -34 -20 -42 -2 -8 -5 -17 -7 -20 -2 -3 -7 -21 -11 -41 -14 -76 -79
-266 -103 -304 -14 -22 -26 -47 -28 -55 -11 -61 -26 -95 -43 -95 -10 0 -14 -7
-9 -16 20 -32 -51 -146 -77 -124 -19 15 -22 8 -15 -30 6 -30 0 -50 -14 -50
-13 0 -19 -8 -13 -17 6 -9 -5 -35 -24 -56 -19 -22 -43 -56 -55 -76 -11 -20
-29 -35 -39 -32 -10 2 -25 -15 -34 -39 -9 -25 -25 -37 -39 -28 -14 9 -18 5 -9
-8 7 -12 -5 -41 -27 -63 -23 -23 -35 -41 -28 -41 7 0 -3 -18 -23 -40 -19 -21
-45 -33 -56 -26 -13 8 -16 -1 -7 -23 11 -29 6 -34 -26 -25 -24 6 -38 1 -35
-13 2 -13 -7 -21 -20 -18 -14 2 -20 -8 -14 -23 6 -15 0 -35 -14 -43 -14 -9
-19 -7 -12 5 7 10 0 19 -16 19 -16 0 -24 -6 -19 -14 10 -18 -67 -119 -91 -119
-10 0 -42 -22 -71 -50 -30 -27 -60 -45 -68 -41 -7 5 -39 -13 -70 -40 -52 -45
-67 -52 -103 -48 -6 1 -27 -17 -47 -40 -20 -22 -46 -41 -59 -41 -13 0 -57 -18
-98 -39 -90 -47 -144 -67 -238 -88 -24 -6 -62 -20 -85 -33 -23 -12 -50 -17
-60 -11 -10 7 -24 3 -30 -8 -7 -10 -25 -14 -42 -8 -16 6 -29 3 -29 -7 0 -10
-29 -18 -65 -16 -54 1 -83 -17 -169 -106 -57 -59 -111 -103 -120 -98 -9 6 -16
-146 -16 -336 0 -190 6 -337 13 -325 8 13 29 -3 50 -39 20 -33 46 -62 57 -64
11 -2 40 -21 64 -42 35 -30 81 -39 230 -44 222 -7 215 1 216 -231 0 -180 -16
-222 -58 -150 -17 29 -21 30 -21 4 -1 -24 -20 -30 -86 -24 -128 10 -223 5
-234 -12 -6 -9 -47 -40 -91 -70 -43 -29 -72 -53 -62 -53 9 0 6 -13 -8 -30 -13
-16 -33 -25 -42 -19 -10 6 -19 0 -20 -15 -4 -43 -12 -162 -15 -233 -3 -61 -6
-65 -37 -40 -23 18 -29 19 -19 2 17 -28 8 -30 -137 -26 -168 4 -199 26 -206
142 -6 124 -77 255 -161 300 -34 18 -58 38 -53 43 6 5 -60 10 -145 10 -266 1
-263 1 -277 58 -9 35 -4 58 14 70 16 9 19 18 7 18 -11 0 -23 28 -25 61 -3 34
3 57 12 51 10 -5 17 2 17 18 0 16 -7 24 -15 19 -9 -6 -14 8 -13 31 2 22 15 40
29 40 14 0 26 8 26 18 0 9 83 23 185 29 238 16 231 15 244 48 6 15 20 22 31
15 11 -7 20 1 20 17 0 17 21 47 47 67 34 27 47 59 49 123 2 48 9 95 15 105 6
10 1 18 -11 18 -12 0 -16 10 -9 21 34 56 11 392 -31 440 -16 19 -56 65 -88
102 -31 37 -50 54 -41 37 11 -20 2 -18 -26 7 -24 20 -81 41 -127 45 -47 5 -95
17 -108 28 -13 11 -30 14 -37 6 -7 -7 -13 -2 -13 12 0 13 -9 19 -19 13 -11 -7
-38 -3 -60 8 -23 12 -59 30 -82 42 -22 11 -50 15 -61 8 -11 -7 -42 2 -69 20
-27 17 -49 27 -49 21 0 -6 -18 -2 -41 10 -22 12 -34 32 -26 44 8 14 4 17 -10
8 -31 -20 -146 32 -135 60 5 13 -10 18 -37 13 -29 -6 -56 5 -74 28 -33 45
-111 107 -90 72 9 -14 -10 -10 -45 10 -32 19 -57 39 -55 45 1 5 -6 14 -17 19
-11 6 -37 24 -58 40 -85 68 -113 104 -100 125 9 14 5 17 -10 7 -26 -16 -102
50 -102 88 0 12 -13 21 -29 21 -37 0 -94 58 -80 82 6 10 2 18 -8 18 -11 0 -26
18 -33 40 -7 22 -20 36 -29 30 -9 -5 -31 20 -47 55 -17 36 -50 85 -73 109 -22
24 -41 54 -41 65 0 12 -9 21 -20 21 -11 0 -20 18 -20 40 0 22 -11 40 -25 40
-14 0 -26 22 -28 49 -1 27 -17 64 -35 82 -18 18 -27 40 -21 51 6 10 1 18 -12
18 -13 0 -18 14 -12 30 7 17 5 30 -3 30 -15 0 -90 186 -96 240 -2 17 -15 57
-29 90 -32 77 -37 129 -15 143 10 6 10 21 -1 34 -10 13 -17 140 -15 283 1 143
-3 289 -11 325 -8 43 -6 60 8 52 14 -9 16 6 5 45 -17 65 -17 59 -3 209 18 192
88 464 116 447 9 -6 17 -1 17 11 0 11 -11 21 -25 21 -17 1 -18 6 -4 15 12 8
34 47 49 85 15 39 43 94 63 123 21 29 37 68 37 85 0 18 9 32 20 32 11 0 20 14
20 30 0 17 14 30 31 30 17 0 26 9 19 20 -18 29 28 103 54 87 15 -8 19 -2 11
17 -6 17 5 42 27 57 21 15 38 40 38 54 0 14 13 31 30 38 16 6 25 19 19 28 -5
9 8 27 31 39 24 13 35 32 27 46 -8 13 2 11 22 -6 34 -27 36 -26 23 13 -10 32
-3 45 29 53 25 6 37 21 30 33 -8 12 -6 20 4 16 9 -3 47 29 83 70 36 41 79 75
94 75 15 0 28 14 28 30 0 19 19 30 49 30 35 0 46 8 39 29 -8 20 6 34 40 42 29
7 52 21 52 31 0 10 12 18 27 18 15 0 52 23 81 50 30 28 63 45 73 39 11 -6 19
0 19 13 0 14 6 19 13 12 7 -8 25 -4 40 8 15 13 40 17 56 11 19 -7 25 -1 18 18
-8 20 2 29 31 29 23 0 42 10 42 21 0 12 7 17 16 11 9 -5 42 3 73 19 30 16 70
29 88 29 18 0 59 14 90 30 32 17 74 30 94 30 20 0 41 8 47 17 6 9 44 19 86 21
42 3 87 6 101 7 14 1 25 8 25 16 0 21 786 18 812 -3z"/>
<path d="M4240 7801 c0 -7 -40 -10 -90 -7 -49 3 -90 -3 -90 -13 0 -10 -18 -17
-40 -16 -22 2 -40 12 -40 23 0 11 -11 5 -25 -13 -14 -18 -56 -37 -93 -42 -37
-6 -73 -18 -80 -27 -7 -9 -30 -19 -52 -22 -61 -9 -246 -102 -376 -187 -64 -43
-124 -77 -132 -77 -9 0 -39 -20 -66 -45 -27 -25 -87 -79 -132 -120 -45 -41
-91 -75 -102 -75 -11 0 -25 -19 -32 -41 -8 -26 -25 -38 -42 -31 -22 8 -25 3
-12 -23 18 -36 -39 -115 -64 -90 -7 6 -12 -4 -12 -22 0 -19 -13 -39 -30 -46
-16 -6 -25 -19 -20 -27 6 -9 -3 -30 -20 -47 -16 -17 -30 -40 -30 -52 0 -11 -8
-21 -19 -21 -10 0 -21 -20 -25 -45 -4 -29 -19 -44 -42 -42 -26 2 -30 -4 -15
-22 11 -14 14 -31 6 -40 -8 -8 -15 -20 -16 -28 -2 -32 -58 -163 -70 -163 -7 0
-24 -65 -38 -145 -14 -80 -31 -154 -38 -165 -6 -11 -10 -60 -8 -109 2 -49 -4
-98 -12 -110 -19 -26 -18 -53 4 -87 10 -15 5 -39 -10 -59 -19 -23 -20 -28 -2
-18 31 19 33 -24 5 -97 -15 -39 -14 -49 3 -38 16 10 20 1 12 -29 -6 -24 -3
-48 6 -54 10 -6 8 -28 -5 -48 -18 -29 -18 -45 3 -70 21 -25 22 -38 4 -56 -34
-34 -28 -64 7 -35 28 23 43 -15 33 -84 -2 -8 7 -40 19 -70 11 -31 18 -56 15
-56 -4 0 14 -32 38 -72 24 -39 39 -78 31 -85 -7 -7 -1 -13 13 -13 16 0 22 -15
15 -40 -6 -22 -3 -40 5 -40 19 0 161 -212 161 -240 0 -11 14 -20 30 -20 17 0
30 -12 30 -26 0 -14 53 -81 119 -148 65 -67 113 -127 106 -134 -6 -7 6 -12 27
-12 29 -1 32 -5 10 -18 -20 -13 -11 -21 36 -31 34 -8 72 -32 83 -53 11 -21 34
-38 50 -38 16 0 29 -9 29 -20 0 -10 23 -25 50 -32 28 -7 50 -18 50 -26 0 -24
270 -153 305 -145 8 2 15 -6 15 -17 0 -11 7 -19 15 -18 41 7 86 -4 77 -18 -5
-9 23 -18 64 -21 40 -3 78 -11 83 -19 6 -8 29 -14 51 -14 23 0 38 -12 35 -26
-4 -17 3 -21 19 -11 32 19 100 19 132 -1 14 -8 39 -5 55 9 16 13 29 15 29 5 0
-24 379 -21 419 3 18 12 31 10 36 -5 6 -18 19 -18 52 0 23 14 51 22 61 19 10
-3 24 4 31 15 7 12 44 23 82 25 38 3 74 12 79 20 6 8 33 18 60 23 141 23 435
196 595 349 56 54 87 58 74 10 -5 -19 2 -11 16 19 14 29 64 90 111 135 47 44
80 81 74 81 -7 0 12 32 41 70 49 64 111 102 77 47 -9 -15 -5 -18 11 -8 17 11
18 22 4 36 -15 15 -9 36 18 71 21 27 39 62 39 78 0 16 9 23 20 16 11 -7 20 2
20 19 0 17 10 31 23 31 13 0 18 6 11 13 -7 7 0 36 15 65 60 112 110 234 115
282 3 28 15 56 25 64 11 7 21 49 22 92 2 43 9 88 16 99 20 33 15 626 -6 714
-10 44 -15 84 -10 89 5 4 0 19 -11 32 -11 13 -22 48 -24 77 -3 30 -15 50 -27
45 -15 -5 -19 10 -13 42 6 34 -1 57 -23 70 -18 10 -33 31 -33 48 0 30 -69 176
-102 216 -56 67 -117 177 -107 193 6 10 -3 13 -20 7 -20 -8 -31 -1 -31 20 0
18 -11 32 -23 32 -13 0 -18 5 -12 12 7 7 -23 46 -66 87 -44 41 -79 86 -79 99
0 13 -8 19 -18 13 -9 -6 -29 3 -42 19 -14 17 -17 30 -7 30 9 0 -28 26 -83 58
-55 31 -117 76 -138 100 -21 23 -49 42 -62 42 -13 0 -40 18 -60 40 -19 21 -43
34 -53 28 -9 -6 -17 0 -17 12 0 12 -9 17 -20 10 -11 -7 -20 2 -20 20 0 18 -9
27 -20 20 -11 -7 -20 -1 -20 14 -1 21 -4 20 -18 -1 -11 -18 -20 -20 -25 -6 -4
12 -25 25 -47 29 -22 5 -53 13 -70 20 -84 34 -255 74 -312 74 -36 0 -70 7 -75
16 -6 9 -45 15 -87 14 -42 -2 -97 5 -123 14 -30 11 -58 8 -75 -6 -16 -13 -28
-14 -28 -4 0 11 -31 19 -70 19 -38 0 -70 -5 -70 -12z m471 -202 c1480 -262
2040 -2104 956 -3140 -943 -903 -2522 -562 -2987 644 -519 1347 619 2746 2031
2496z"/>
<path d="M4334 6968 c-24 -25 -15 -102 15 -127 47 -39 115 9 107 75 -6 54 -86
87 -122 52z"/>
<path d="M3745 6897 c-33 -33 -31 -67 5 -97 40 -33 94 10 86 68 -7 49 -56 64
-91 29z"/>
<path d="M4947 6890 c-18 -47 8 -90 53 -90 51 0 73 50 40 90 -32 39 -78 38
-93 0z"/>
<path d="M3884 6636 c-64 -64 -3 -170 86 -148 47 12 61 42 50 112 -8 58 -92
80 -136 36z"/>
<path d="M4760 6619 c-31 -56 -7 -117 52 -131 59 -15 108 21 108 80 0 91 -119
129 -160 51z"/>
<path d="M4324 6559 c-52 -48 -55 -75 -13 -135 60 -85 174 -41 174 68 0 92
-92 131 -161 67z"/>
<path d="M3395 6398 c-65 -37 -30 -138 48 -138 30 0 77 53 77 87 0 49 -76 80
-125 51z"/>
<path d="M5280 6380 c-28 -52 7 -120 61 -120 54 0 94 87 59 129 -35 43 -95 39
-120 -9z"/>
<path d="M4545 6306 c-102 -20 -155 -173 -91 -267 67 -97 150 -107 244 -27
137 115 27 327 -153 294z"/>
<path d="M4061 6247 c-88 -112 -29 -262 110 -280 152 -20 246 155 149 278 -61
78 -198 79 -259 2z"/>
<path d="M3744 6219 c-72 -29 -56 -161 23 -188 102 -36 172 90 93 169 -44 44
-50 45 -116 19z"/>
<path d="M4924 6209 c-77 -54 -34 -189 61 -189 88 0 132 159 56 199 -51 28
-64 27 -117 -10z"/>
<path d="M3945 5944 c-109 -17 -165 -204 -86 -283 117 -117 301 -39 301 125 0
96 -108 176 -215 158z"/>
<path d="M4706 5921 c-174 -107 -39 -381 150 -303 106 44 136 183 59 270 -63
70 -131 81 -209 33z"/>
<path d="M5221 5827 c-46 -59 -23 -130 47 -144 86 -17 131 135 53 176 -52 28
-52 28 -100 -32z"/>
<path d="M3445 5847 c-14 -6 -25 -35 -25 -66 0 -102 97 -134 152 -50 49 74
-37 152 -127 116z"/>
<path d="M3180 5782 c0 -43 10 -62 31 -62 23 0 30 16 25 53 -9 78 -56 85 -56
9z"/>
<path d="M5547 5810 c-18 -47 8 -90 52 -90 32 0 41 13 41 60 0 66 -70 89 -93
30z"/>
<path d="M4130 5577 c-177 -99 -123 -335 77 -337 59 0 153 108 153 177 0 115
-139 212 -230 160z"/>
<path d="M4480 5540 c-80 -85 -80 -163 1 -244 153 -153 377 70 234 233 -74 84
-163 89 -235 11z"/>
<path d="M4924 5499 c-76 -70 -32 -179 72 -179 104 0 123 147 25 200 -50 26
-46 27 -97 -21z"/>
<path d="M3724 5496 c-60 -60 -15 -176 69 -176 54 0 107 50 107 100 0 81 -119
133 -176 76z"/>
<path d="M5306 5275 c-45 -57 -45 -76 -5 -116 40 -40 44 -41 81 -8 49 45 49
102 -1 128 -49 26 -52 26 -75 -4z"/>
<path d="M3385 5257 c-35 -35 -31 -65 16 -108 54 -49 145 25 107 86 -27 44
-90 55 -123 22z"/>
<path d="M4321 5141 c-52 -52 -52 -105 0 -152 60 -54 147 -20 154 61 10 109
-82 163 -154 91z"/>
<path d="M3915 5065 c-52 -12 -67 -99 -24 -146 44 -49 73 -49 118 0 60 66 -4
167 -94 146z"/>
<path d="M4781 5041 c-73 -73 11 -191 99 -137 52 33 53 127 1 155 -51 28 -55
27 -100 -18z"/>
<path d="M3743 4733 c-35 -41 -6 -93 50 -93 42 0 49 8 43 55 -7 61 -57 82 -93
38z"/>
<path d="M4947 4730 c-6 -16 -6 -44 1 -61 16 -43 100 -29 109 19 12 63 -87
101 -110 42z"/>
<path d="M4320 4680 c-17 -32 -17 -50 1 -71 32 -39 117 -37 133 4 31 82 -93
144 -134 67z"/>
</g>
</svg>
