<svg id="svg" version="1.1" xmlns="http://www.w3.org/2000/svg" xmlns:xlink="http://www.w3.org/1999/xlink" width="400" height="444.88124488124487" viewBox="0, 0, 400,444.88124488124487"><g id="svgg"><path id="path0" d="M178.706 67.338 C 128.662 74.275,87.898 111.687,76.846 160.820 C 74.996 169.048,74.974 169.402,75.091 188.862 L 75.199 206.880 76.277 211.933 C 86.807 261.267,125.677 298.816,174.857 307.161 L 178.215 307.731 178.215 322.580 L 178.215 337.428 163.800 337.428 L 149.386 337.428 149.386 354.464 L 149.386 371.499 163.796 371.499 L 178.206 371.499 178.292 382.391 L 178.378 393.284 195.250 393.284 L 212.121 393.284 212.199 382.637 C 212.242 376.781,212.279 371.880,212.281 371.744 C 212.283 371.609,218.698 371.499,226.536 371.499 L 240.786 371.499 240.786 354.464 L 240.786 337.428 226.536 337.428 L 212.285 337.428 212.283 336.691 C 212.239 323.977,212.284 307.836,212.363 307.757 C 212.421 307.699,213.495 307.491,214.751 307.294 C 266.519 299.171,308.065 256.692,315.295 204.493 C 316.109 198.617,316.023 175.238,315.167 169.697 C 307.089 117.394,268.088 77.566,215.507 67.924 C 209.705 66.860,184.992 66.467,178.706 67.338 M205.733 106.140 C 261.706 114.227,293.344 172.803,268.992 223.260 C 239.257 284.869,151.521 284.869,121.364 223.260 C 92.965 165.244,142.158 96.955,205.733 106.140 " stroke="none" fill="#eb0d6b" fill-rule="evenodd"></path><path id="path1" d="M0.000 222.441 L 0.000 444.881 200.000 444.881 L 400.000 444.881 400.000 222.441 L 400.000 0.000 200.000 0.000 L 0.000 0.000 0.000 222.441 M213.595 67.470 C 266.123 75.583,307.425 116.985,315.326 169.449 C 316.016 174.029,316.016 201.074,315.326 205.653 C 307.651 256.620,267.906 297.789,217.527 306.957 C 215.455 307.334,213.428 307.713,213.022 307.800 L 212.285 307.957 212.285 322.693 L 212.285 337.428 226.699 337.428 L 241.114 337.428 241.114 354.464 L 241.114 371.499 226.699 371.499 L 212.285 371.499 212.285 382.637 L 212.285 393.776 195.285 393.776 C 180.085 393.776,178.264 393.721,178.086 393.257 C 177.976 392.972,177.887 387.960,177.887 382.119 L 177.887 371.499 163.636 371.499 L 149.386 371.499 149.386 354.464 L 149.386 337.428 163.582 337.428 C 171.390 337.428,177.839 337.367,177.914 337.292 C 177.989 337.217,177.977 330.558,177.887 322.493 L 177.723 307.831 174.120 307.222 C 124.741 298.891,84.819 259.268,75.679 209.519 C 74.677 204.065,74.676 171.047,75.678 165.583 C 84.230 118.931,119.436 81.354,165.438 69.776 C 169.721 68.698,172.475 68.154,179.197 67.054 C 182.315 66.544,209.748 66.876,213.595 67.470 M187.551 106.030 C 158.204 109.519,134.845 125.423,122.186 150.532 C 95.101 204.258,133.004 267.866,192.901 269.203 C 261.939 270.744,301.956 192.533,260.152 137.764 C 243.374 115.782,213.896 102.898,187.551 106.030 M197.178 134.951 C 198.790 135.814,198.633 139.140,196.919 140.448 C 194.430 142.348,189.959 138.343,192.138 136.165 C 192.408 135.894,192.629 135.528,192.629 135.350 C 192.629 134.660,196.071 134.359,197.178 134.951 M224.177 138.553 C 224.948 139.857,224.879 140.394,223.797 141.526 C 221.579 143.847,218.843 141.969,219.621 138.660 C 220.080 136.708,223.046 136.638,224.177 138.553 M169.566 137.515 C 171.507 138.811,170.500 142.834,168.235 142.834 C 167.248 142.834,165.438 141.056,165.438 140.087 C 165.438 138.261,168.151 136.571,169.566 137.515 M177.912 149.688 C 178.439 150.215,178.870 150.922,178.870 151.261 C 178.870 151.599,179.003 152.016,179.165 152.187 C 179.343 152.374,179.158 153.175,178.701 154.198 C 177.065 157.859,171.970 157.107,171.617 153.153 C 171.362 150.285,172.644 148.731,175.266 148.731 C 176.696 148.731,177.102 148.877,177.912 149.688 M217.406 149.461 C 219.347 150.792,219.420 153.232,217.577 155.228 C 214.397 158.672,209.589 154.974,211.451 150.517 C 212.244 148.620,215.370 148.066,217.406 149.461 M198.010 152.722 C 201.124 155.882,199.297 161.039,195.086 160.975 C 190.382 160.904,188.831 155.010,192.803 152.302 C 194.133 151.396,196.925 151.621,198.010 152.722 M154.747 160.220 C 155.222 160.594,155.610 161.110,155.610 161.367 C 155.610 161.624,155.758 161.835,155.938 161.835 C 156.522 161.835,156.285 163.452,155.528 164.628 C 153.332 168.043,148.602 165.672,149.779 161.745 C 150.400 159.672,153.025 158.866,154.747 160.220 M239.865 160.518 C 241.562 162.614,239.912 166.093,237.221 166.093 C 234.409 166.093,233.059 161.899,235.286 160.081 C 236.330 159.227,239.028 159.485,239.865 160.518 M188.728 164.565 C 194.078 166.185,195.614 173.686,191.429 177.757 C 187.966 181.126,180.992 180.135,179.653 176.085 C 179.534 175.725,179.293 175.337,179.117 175.224 C 178.277 174.684,178.297 169.287,179.141 168.740 C 179.302 168.636,179.667 168.095,179.951 167.539 C 181.381 164.748,185.132 163.476,188.728 164.565 M206.749 164.499 C 211.427 166.057,213.331 173.351,210.017 177.020 C 208.423 178.786,208.006 179.100,206.751 179.476 C 203.250 180.525,197.676 178.504,197.557 176.144 C 197.549 175.996,197.335 175.667,197.081 175.413 C 195.973 174.305,196.079 169.696,197.244 168.354 C 197.589 167.956,197.871 167.533,197.871 167.413 C 197.871 165.262,203.498 163.416,206.749 164.499 M224.079 168.370 C 224.529 168.684,225.119 169.370,225.389 169.893 C 225.659 170.416,225.991 170.893,226.126 170.953 C 227.286 171.468,225.051 175.895,223.293 176.564 C 219.481 178.013,216.057 174.594,217.207 170.487 C 217.953 167.823,221.660 166.681,224.079 168.370 M171.244 168.378 C 173.350 169.661,173.811 172.848,172.226 175.166 C 170.006 178.415,164.867 177.086,164.270 173.108 C 163.660 169.038,167.763 166.255,171.244 168.378 M178.792 180.147 C 179.105 180.308,179.993 180.702,180.766 181.021 C 182.117 181.579,184.111 183.737,184.111 184.640 C 184.111 184.860,184.287 185.098,184.501 185.170 C 185.155 185.388,185.258 189.457,184.639 190.638 C 184.349 191.193,183.873 192.101,183.582 192.657 C 183.291 193.213,182.591 193.941,182.026 194.275 C 181.461 194.610,180.782 195.076,180.516 195.312 C 179.904 195.856,174.695 195.909,174.353 195.376 C 174.225 195.175,173.825 194.913,173.464 194.794 C 168.075 193.013,168.915 181.923,174.533 180.689 C 175.112 180.561,175.670 180.321,175.773 180.155 C 176.012 179.768,178.049 179.762,178.792 180.147 M215.265 180.369 C 219.413 182.289,220.318 183.669,220.299 188.043 C 220.278 193.114,217.735 195.741,212.846 195.741 C 211.314 195.741,210.202 195.594,210.062 195.373 C 209.933 195.170,209.262 194.703,208.571 194.334 C 203.739 191.758,205.247 180.508,210.424 180.508 C 210.706 180.508,211.027 180.360,211.138 180.180 C 211.451 179.675,214.020 179.792,215.265 180.369 M237.592 185.205 C 239.583 187.394,238.283 191.402,235.431 191.865 C 234.325 192.045,232.269 191.504,232.268 191.033 C 232.268 190.920,231.899 190.399,231.449 189.875 C 228.319 186.235,234.355 181.646,237.592 185.205 M157.379 184.501 C 157.627 184.737,158.133 185.180,158.504 185.485 C 160.961 187.508,158.923 191.983,155.550 191.969 C 152.455 191.957,150.824 189.352,151.990 186.285 C 152.748 184.291,156.020 183.208,157.379 184.501 M249.981 185.433 C 250.831 185.889,250.928 189.818,250.096 190.137 C 248.111 190.899,246.355 189.806,246.355 187.809 C 246.355 185.766,248.264 184.515,249.981 185.433 M143.418 186.217 C 144.705 187.432,144.014 189.983,142.260 190.493 C 141.539 190.703,141.523 190.651,141.523 188.043 C 141.523 185.236,141.947 184.828,143.418 186.217 M188.558 196.319 C 195.190 198.330,195.762 208.473,189.395 211.163 C 186.075 212.565,179.853 210.558,179.853 208.084 C 179.853 207.898,179.598 207.491,179.287 207.180 C 178.334 206.227,178.296 202.530,179.221 200.678 C 181.114 196.887,184.782 195.175,188.558 196.319 M206.865 196.411 C 214.811 199.732,212.606 211.630,204.044 211.630 C 201.147 211.630,197.619 209.551,197.557 207.808 C 197.549 207.598,197.388 207.374,197.198 207.310 C 196.076 206.937,196.111 201.806,197.245 200.364 C 197.589 199.927,197.871 199.418,197.871 199.233 C 197.871 197.120,203.976 195.204,206.865 196.411 M170.425 199.263 C 170.670 199.488,171.160 199.833,171.513 200.030 C 173.752 201.278,173.743 206.304,171.499 207.510 C 171.138 207.704,170.745 207.999,170.625 208.166 C 170.284 208.638,166.991 208.589,166.831 208.108 C 166.756 207.883,166.495 207.699,166.252 207.699 C 163.893 207.699,163.773 200.538,166.121 199.924 C 166.466 199.834,166.749 199.640,166.749 199.494 C 166.749 198.857,169.774 198.666,170.425 199.263 M224.124 199.707 C 226.908 202.196,226.853 206.196,224.018 207.450 C 223.511 207.675,223.096 207.970,223.096 208.106 C 223.096 208.436,219.905 208.426,219.765 208.096 C 219.705 207.955,219.203 207.521,218.649 207.132 C 215.186 204.702,217.606 198.550,221.871 198.942 C 222.767 199.024,223.725 199.350,224.124 199.707 M154.727 210.645 C 155.303 211.185,155.885 211.627,156.020 211.628 C 156.155 211.629,156.265 212.264,156.265 213.040 C 156.265 214.879,154.591 216.675,152.877 216.675 C 150.176 216.675,148.534 212.559,150.614 211.004 C 151.110 210.634,151.663 210.188,151.843 210.014 C 152.472 209.405,153.688 209.672,154.727 210.645 M239.578 210.583 C 241.539 212.629,240.181 216.544,237.510 216.544 C 236.281 216.544,234.619 215.053,234.371 213.728 C 233.754 210.443,237.359 208.267,239.578 210.583 M198.089 216.077 C 201.516 220.329,197.578 225.819,192.683 223.612 C 190.473 222.615,189.741 219.380,191.123 216.716 C 192.191 214.658,196.618 214.252,198.089 216.077 M217.854 220.718 C 219.214 222.094,219.455 224.783,218.294 225.630 C 217.962 225.872,217.358 226.360,216.951 226.713 C 215.153 228.273,211.360 226.600,211.264 224.204 C 211.084 219.679,214.855 217.685,217.854 220.718 M178.027 220.557 C 178.496 221.143,179.025 221.800,179.202 222.017 C 179.624 222.535,179.620 224.406,179.197 224.406 C 179.017 224.406,178.870 224.629,178.870 224.901 C 178.870 227.370,174.637 228.317,172.759 226.267 C 171.180 224.545,171.565 220.439,173.374 219.712 C 174.911 219.094,177.185 219.507,178.027 220.557 M222.617 233.272 C 222.735 233.463,223.182 233.753,223.610 233.915 C 226.556 235.035,223.866 239.348,220.875 238.301 C 219.153 237.698,219.103 234.118,220.811 233.672 C 221.167 233.579,221.458 233.372,221.458 233.213 C 221.458 232.806,222.357 232.852,222.617 233.272 M170.099 234.152 C 171.748 236.030,170.612 238.821,168.198 238.821 C 167.421 238.821,165.684 236.937,165.684 236.093 C 165.684 234.075,168.820 232.696,170.099 234.152 M196.994 235.670 C 199.526 237.742,198.442 240.788,195.176 240.781 C 192.212 240.775,191.922 240.590,191.729 238.589 C 191.435 235.526,194.644 233.747,196.994 235.670 " stroke="none" fill="#fbfbfb" fill-rule="evenodd"></path><path id="path2" d="M193.202 134.998 C 192.887 135.181,192.629 135.545,192.629 135.807 C 192.629 136.068,192.482 136.282,192.301 136.282 C 191.659 136.282,191.978 138.716,192.744 139.650 C 195.021 142.433,199.342 139.478,197.834 136.169 C 197.216 134.812,194.640 134.160,193.202 134.998 M166.781 138.217 C 165.487 139.426,165.448 140.620,166.667 141.693 C 168.390 143.210,170.330 142.253,170.331 139.885 C 170.332 137.540,168.452 136.656,166.781 138.217 M220.929 137.490 C 219.840 137.704,219.058 140.055,219.743 141.057 C 220.211 141.742,222.134 142.674,222.373 142.332 C 222.500 142.149,223.010 141.742,223.505 141.426 C 224.719 140.654,224.685 139.480,223.412 138.236 C 222.427 137.273,222.270 137.226,220.929 137.490 M173.963 149.084 C 170.487 150.524,171.155 156.265,174.799 156.265 C 177.992 156.265,179.681 153.854,178.557 150.898 C 177.971 149.357,175.581 148.413,173.963 149.084 M213.012 149.254 C 210.540 150.334,210.748 155.010,213.307 155.902 C 215.534 156.679,216.622 156.314,217.998 154.329 C 220.214 151.131,216.760 147.616,213.012 149.254 M194.114 151.919 C 190.372 152.868,189.520 158.174,192.784 160.191 C 196.220 162.315,200.116 159.248,199.189 155.149 C 198.801 153.434,196.350 151.448,194.955 151.717 C 194.847 151.738,194.468 151.829,194.114 151.919 M236.364 159.774 C 233.398 160.510,234.099 165.750,237.174 165.837 C 239.908 165.915,241.510 161.984,239.428 160.303 C 238.864 159.847,237.215 159.562,236.364 159.774 M150.980 160.364 C 149.272 161.292,149.390 164.327,151.178 165.433 C 152.640 166.336,153.818 166.275,154.711 165.251 C 157.336 162.241,154.459 158.473,150.980 160.364 M202.785 164.352 C 201.593 164.547,200.164 165.148,200.164 165.456 C 200.164 165.602,199.867 165.816,199.505 165.931 C 199.143 166.046,198.630 166.558,198.366 167.068 C 198.102 167.579,197.624 168.258,197.305 168.578 C 196.580 169.302,196.433 174.950,197.133 175.184 C 197.359 175.259,197.544 175.493,197.545 175.703 C 197.555 178.339,203.628 180.415,207.196 179.002 C 215.079 175.880,211.195 162.983,202.785 164.352 M182.281 165.520 C 179.191 167.606,177.433 173.221,179.288 175.076 C 179.599 175.387,179.857 175.814,179.862 176.027 C 179.867 176.239,180.304 176.887,180.831 177.467 C 184.291 181.270,191.901 179.612,193.248 174.763 C 193.944 172.254,193.479 168.239,192.445 167.842 C 192.186 167.743,191.974 167.493,191.974 167.287 C 191.974 166.811,189.977 165.207,188.854 164.780 C 186.921 164.045,183.974 164.377,182.281 165.520 M166.673 168.406 C 162.494 170.612,164.648 177.543,169.278 176.792 C 173.402 176.123,174.382 170.275,170.686 168.390 C 169.090 167.575,168.239 167.579,166.673 168.406 M218.938 168.540 C 216.713 169.907,216.526 173.503,218.582 175.380 C 222.199 178.685,226.971 175.146,225.384 170.336 C 224.576 167.888,221.428 167.011,218.938 168.540 M211.402 180.541 C 204.804 181.761,203.362 191.401,209.311 194.513 C 211.292 195.549,214.968 196.052,215.288 195.332 C 215.348 195.197,216.121 194.722,217.005 194.276 C 221.502 192.010,221.350 183.534,216.773 181.374 C 214.758 180.424,213.278 180.194,211.402 180.541 M174.375 180.942 C 171.190 182.103,169.230 186.166,170.061 189.881 C 170.509 191.882,172.433 194.292,173.956 194.759 C 174.406 194.897,174.874 195.166,174.996 195.355 C 176.134 197.131,182.074 194.862,183.456 192.123 C 183.907 191.230,184.386 190.450,184.521 190.390 C 184.845 190.246,184.840 185.422,184.516 185.422 C 184.379 185.422,183.917 184.686,183.490 183.787 C 182.175 181.018,177.861 179.671,174.375 180.942 M233.743 184.091 C 231.659 184.957,230.198 188.284,231.368 189.497 C 231.593 189.730,232.123 190.327,232.546 190.822 C 234.088 192.630,237.504 191.482,238.193 188.923 C 238.973 186.026,236.236 183.053,233.743 184.091 M154.136 184.461 C 153.956 184.635,153.403 185.081,152.907 185.451 C 151.023 186.860,151.936 190.866,154.320 191.653 C 157.885 192.829,161.120 188.025,158.351 185.665 C 157.877 185.261,157.298 184.746,157.064 184.521 C 156.568 184.042,154.611 184.002,154.136 184.461 M247.159 186.289 C 245.440 188.143,246.909 190.523,249.468 190.030 C 250.396 189.851,250.456 189.744,250.550 188.096 C 250.708 185.345,248.918 184.391,247.159 186.289 M141.523 188.043 C 141.523 190.510,141.747 190.765,143.088 189.826 C 144.475 188.854,143.658 185.749,142.015 185.749 C 141.625 185.749,141.523 186.223,141.523 188.043 M183.555 196.564 C 183.159 196.724,182.532 197.157,182.163 197.526 C 181.793 197.896,181.346 198.198,181.170 198.198 C 180.993 198.198,180.531 198.825,180.143 199.590 C 179.755 200.356,179.276 201.086,179.079 201.212 C 178.623 201.503,178.641 206.369,179.099 206.664 C 179.283 206.783,179.672 207.322,179.964 207.862 C 183.576 214.554,193.652 211.701,193.597 204.002 C 193.579 201.395,192.989 199.769,191.654 198.646 C 191.070 198.154,190.423 197.584,190.218 197.380 C 189.199 196.365,185.250 195.881,183.555 196.564 M201.229 196.632 C 200.823 196.828,200.491 197.113,200.491 197.265 C 200.491 197.418,200.315 197.543,200.100 197.543 C 199.574 197.543,197.871 199.199,197.871 199.710 C 197.871 199.934,197.613 200.375,197.297 200.690 C 196.845 201.142,196.724 201.827,196.724 203.930 C 196.724 206.033,196.845 206.719,197.297 207.171 C 197.613 207.487,197.871 207.856,197.871 207.991 C 197.871 208.462,199.681 210.235,200.686 210.748 C 208.217 214.595,215.393 204.488,209.382 198.500 C 207.233 196.358,203.547 195.514,201.229 196.632 M220.662 199.084 C 220.314 199.176,219.815 199.467,219.551 199.730 C 219.288 199.994,218.732 200.432,218.316 200.705 C 216.404 201.958,217.033 206.051,219.352 207.453 C 220.838 208.351,222.441 208.648,222.441 208.026 C 222.441 207.846,222.699 207.698,223.014 207.697 C 225.001 207.691,226.321 204.440,225.424 201.758 C 224.861 200.075,222.317 198.646,220.662 199.084 M167.076 199.456 C 167.076 199.607,166.712 199.897,166.266 200.100 C 163.796 201.225,164.032 206.923,166.575 207.562 C 167.031 207.676,167.404 207.901,167.404 208.062 C 167.404 208.433,169.933 208.448,170.079 208.077 C 170.139 207.925,170.626 207.593,171.162 207.340 C 172.553 206.682,173.021 205.582,172.880 203.308 C 172.756 201.305,172.833 201.426,170.448 199.500 C 169.965 199.110,167.076 199.072,167.076 199.456 M236.071 210.318 C 232.946 212.316,234.638 216.674,238.269 215.980 C 240.845 215.488,241.147 210.319,238.600 210.319 C 238.361 210.319,238.165 210.172,238.165 209.992 C 238.165 209.485,237.119 209.648,236.071 210.318 M151.107 210.718 C 149.523 211.483,149.498 214.628,151.068 215.521 C 151.582 215.813,152.003 216.163,152.004 216.298 C 152.009 216.832,153.687 216.502,154.483 215.811 C 157.761 212.961,155.023 208.830,151.107 210.718 M193.000 215.355 C 189.727 216.539,189.957 222.715,193.312 223.721 C 196.401 224.646,199.181 222.626,199.181 219.456 C 199.181 216.181,196.194 214.199,193.000 215.355 M173.942 219.850 C 171.442 220.770,171.227 225.976,173.662 226.613 C 174.004 226.703,174.283 226.906,174.283 227.065 C 174.283 227.900,176.713 227.314,177.772 226.224 C 180.707 223.202,177.832 218.419,173.942 219.850 M213.189 219.917 C 210.866 220.835,210.820 224.848,213.114 226.434 C 214.995 227.734,216.324 227.435,218.264 225.273 C 220.619 222.648,216.712 218.524,213.189 219.917 M166.764 234.498 C 164.760 236.413,167.227 239.487,169.704 238.161 C 170.996 237.470,170.918 234.440,169.598 234.061 C 169.202 233.948,168.627 233.785,168.320 233.700 C 167.993 233.609,167.347 233.940,166.764 234.498 M220.803 233.988 C 219.812 234.502,219.502 236.625,220.265 237.667 C 220.919 238.560,223.298 238.573,223.947 237.686 C 225.587 235.443,223.262 232.709,220.803 233.988 M194.411 235.190 C 192.080 235.850,190.872 239.064,192.492 240.290 C 193.274 240.881,196.569 240.941,197.275 240.377 C 199.315 238.746,196.954 234.469,194.411 235.190 " stroke="none" fill="#42c9ca" fill-rule="evenodd"></path><path id="path3" d="M180.262 67.056 C 180.577 67.139,181.093 67.139,181.409 67.056 C 181.724 66.974,181.466 66.906,180.835 66.906 C 180.205 66.906,179.947 66.974,180.262 67.056 M140.131 79.139 C 138.861 79.828,139.005 80.066,140.295 79.410 C 141.530 78.782,141.748 78.619,141.332 78.637 C 141.167 78.644,140.627 78.870,140.131 79.139 M113.987 97.215 L 112.858 98.444 114.087 97.315 C 114.762 96.694,115.315 96.141,115.315 96.086 C 115.315 95.836,115.038 96.072,113.987 97.215 M276.495 97.387 C 276.495 97.437,277.637 98.579,279.034 99.926 L 281.572 102.375 279.124 99.836 C 276.849 97.478,276.495 97.148,276.495 97.387 M108.752 102.129 L 106.962 104.013 108.845 102.222 C 110.595 100.559,110.879 100.246,110.636 100.246 C 110.585 100.246,109.737 101.093,108.752 102.129 M283.374 104.341 C 284.353 105.332,285.227 106.143,285.318 106.143 C 285.408 106.143,284.681 105.332,283.702 104.341 C 282.723 103.350,281.849 102.539,281.759 102.539 C 281.669 102.539,282.396 103.350,283.374 104.341 M192.547 105.731 C 194.034 105.792,196.466 105.792,197.952 105.731 C 199.439 105.670,198.223 105.621,195.250 105.621 C 192.277 105.621,191.061 105.670,192.547 105.731 M104.320 106.880 L 103.358 107.944 104.423 106.982 C 105.415 106.085,105.638 105.815,105.385 105.815 C 105.328 105.815,104.849 106.294,104.320 106.880 M186.654 106.047 C 187.062 106.125,187.651 106.122,187.965 106.040 C 188.278 105.958,187.944 105.894,187.224 105.898 C 186.503 105.901,186.247 105.968,186.654 106.047 M202.539 106.041 C 202.854 106.123,203.370 106.123,203.686 106.041 C 204.001 105.958,203.743 105.891,203.112 105.891 C 202.482 105.891,202.224 105.958,202.539 106.041 M140.195 126.699 L 139.066 127.928 140.295 126.799 C 141.438 125.748,141.674 125.471,141.424 125.471 C 141.369 125.471,140.816 126.024,140.195 126.699 M252.907 129.566 C 254.612 131.278,256.080 132.678,256.171 132.678 C 256.261 132.678,254.940 131.278,253.235 129.566 C 251.530 127.854,250.062 126.454,249.972 126.454 C 249.882 126.454,251.203 127.854,252.907 129.566 M133.971 132.924 L 132.842 134.152 134.070 133.023 C 134.746 132.402,135.299 131.850,135.299 131.795 C 135.299 131.545,135.022 131.780,133.971 132.924 M303.752 133.490 C 304.144 134.297,304.520 134.901,304.589 134.832 C 304.737 134.684,303.414 132.023,303.192 132.023 C 303.108 132.023,303.360 132.683,303.752 133.490 M276.571 178.542 C 276.571 179.173,276.638 179.431,276.720 179.115 C 276.803 178.800,276.803 178.284,276.720 177.969 C 276.638 177.654,276.571 177.912,276.571 178.542 M113.432 180.344 C 113.436 181.065,113.503 181.321,113.581 180.913 C 113.660 180.506,113.657 179.916,113.575 179.603 C 113.493 179.290,113.429 179.623,113.432 180.344 M276.916 182.310 C 276.918 183.210,276.982 183.540,277.057 183.042 C 277.133 182.544,277.131 181.807,277.053 181.404 C 276.975 181.001,276.914 181.409,276.916 182.310 M113.147 187.551 C 113.148 189.713,113.201 190.555,113.265 189.422 C 113.329 188.289,113.329 186.520,113.264 185.491 C 113.199 184.462,113.147 185.389,113.147 187.551 M276.920 192.629 C 276.920 193.620,276.982 194.025,277.057 193.530 C 277.132 193.034,277.132 192.224,277.057 191.728 C 276.982 191.233,276.920 191.638,276.920 192.629 M113.432 194.758 C 113.436 195.479,113.503 195.735,113.581 195.328 C 113.660 194.920,113.657 194.331,113.575 194.017 C 113.493 193.704,113.429 194.038,113.432 194.758 M276.571 196.560 C 276.571 197.191,276.638 197.449,276.720 197.133 C 276.803 196.818,276.803 196.302,276.720 195.987 C 276.638 195.672,276.571 195.930,276.571 196.560 M266.503 227.682 C 266.223 228.223,266.068 228.665,266.158 228.665 C 266.249 228.665,266.551 228.223,266.830 227.682 C 267.110 227.142,267.265 226.699,267.175 226.699 C 267.085 226.699,266.782 227.142,266.503 227.682 M133.006 241.216 C 133.006 241.273,133.485 241.752,134.070 242.281 L 135.135 243.243 134.173 242.179 C 133.276 241.186,133.006 240.963,133.006 241.216 M252.902 245.618 L 249.468 249.140 252.989 245.706 C 254.926 243.817,256.511 242.233,256.511 242.184 C 256.511 241.948,256.091 242.347,252.902 245.618 M139.558 247.768 C 139.558 247.825,140.037 248.304,140.622 248.833 L 141.687 249.795 140.725 248.731 C 139.828 247.738,139.558 247.515,139.558 247.768 M104.505 268.468 C 105.116 269.099,105.690 269.615,105.780 269.615 C 105.870 269.615,105.443 269.099,104.832 268.468 C 104.221 267.838,103.647 267.322,103.557 267.322 C 103.467 267.322,103.893 267.838,104.505 268.468 M283.691 270.516 L 281.900 272.400 283.784 270.609 C 285.534 268.946,285.818 268.632,285.574 268.632 C 285.523 268.632,284.676 269.480,283.691 270.516 M202.867 269.186 C 203.182 269.268,203.698 269.268,204.013 269.186 C 204.328 269.103,204.070 269.036,203.440 269.036 C 202.809 269.036,202.551 269.103,202.867 269.186 M192.383 269.531 C 193.960 269.591,196.540 269.591,198.116 269.531 C 199.693 269.471,198.403 269.422,195.250 269.422 C 192.097 269.422,190.807 269.471,192.383 269.531 M108.763 273.055 C 109.924 274.226,110.947 275.184,111.038 275.184 C 111.128 275.184,110.252 274.226,109.091 273.055 C 107.930 271.884,106.907 270.925,106.817 270.925 C 106.727 270.925,107.603 271.884,108.763 273.055 M278.451 275.758 L 276.331 277.969 278.542 275.849 C 279.758 274.683,280.753 273.688,280.753 273.638 C 280.753 273.397,280.420 273.704,278.451 275.758 M113.022 276.925 C 113.022 276.981,113.501 277.460,114.087 277.989 L 115.152 278.952 114.189 277.887 C 113.292 276.895,113.022 276.672,113.022 276.925 M137.920 294.663 C 137.920 294.753,138.509 295.128,139.230 295.495 C 139.951 295.863,140.541 296.090,140.541 296.000 C 140.541 295.910,139.951 295.536,139.230 295.168 C 138.509 294.800,137.920 294.573,137.920 294.663 M141.851 296.806 C 142.482 297.151,143.145 297.434,143.325 297.434 C 143.505 297.434,143.137 297.151,142.506 296.806 C 141.876 296.461,141.212 296.178,141.032 296.178 C 140.852 296.178,141.220 296.461,141.851 296.806 M177.806 317.199 C 177.852 322.469,177.929 329.066,177.979 331.859 C 178.028 334.652,178.101 330.340,178.142 322.277 C 178.182 314.214,178.104 307.617,177.969 307.617 C 177.834 307.616,177.760 311.928,177.806 317.199 M240.939 354.464 C 240.939 363.923,240.981 367.793,241.032 363.063 C 241.083 358.333,241.083 350.594,241.032 345.864 C 240.981 341.134,240.939 345.004,240.939 354.464 M177.962 382.037 C 177.921 387.923,177.976 392.972,178.086 393.257 C 178.300 393.814,212.285 394.085,212.285 393.530 C 212.285 393.395,204.656 393.284,195.332 393.284 L 178.378 393.284 178.208 382.310 L 178.037 371.335 177.962 382.037 " stroke="none" fill="#f99bc5" fill-rule="evenodd"></path><path id="path4" d="M196.724 135.035 C 197.084 135.240,197.488 135.567,197.620 135.762 C 197.786 136.007,197.862 135.994,197.866 135.720 C 197.868 135.501,197.585 135.169,197.237 134.983 C 196.375 134.521,195.903 134.570,196.724 135.035 M191.722 137.592 C 191.722 138.223,191.790 138.481,191.872 138.165 C 191.954 137.850,191.954 137.334,191.872 137.019 C 191.790 136.704,191.722 136.962,191.722 137.592 M223.412 138.236 C 223.959 138.771,224.406 139.532,224.406 139.929 C 224.406 140.325,224.498 140.558,224.609 140.447 C 225.154 139.902,223.608 137.265,222.744 137.265 C 222.565 137.265,222.865 137.702,223.412 138.236 M170.405 139.927 C 170.376 140.581,170.131 141.299,169.861 141.523 C 169.590 141.748,169.369 142.080,169.369 142.263 C 169.369 142.445,169.674 142.208,170.046 141.735 C 170.511 141.144,170.680 140.542,170.589 139.807 L 170.457 138.739 170.405 139.927 M196.788 140.059 C 196.282 140.504,195.996 140.868,196.153 140.868 C 196.452 140.868,197.871 139.640,197.871 139.381 C 197.871 139.136,197.754 139.209,196.788 140.059 M223.623 141.358 C 223.282 141.616,222.840 141.886,222.640 141.958 C 222.440 142.030,222.378 142.198,222.501 142.331 C 222.624 142.464,223.139 142.189,223.644 141.720 C 224.637 140.800,224.625 140.599,223.623 141.358 M166.616 142.015 C 167.142 142.502,167.844 142.814,168.353 142.785 L 169.206 142.736 168.339 142.602 C 167.862 142.529,167.213 142.183,166.896 141.832 C 166.579 141.482,166.187 141.196,166.026 141.196 C 165.864 141.196,166.130 141.564,166.616 142.015 M220.354 142.007 C 220.459 142.282,220.750 142.506,221.001 142.506 C 221.641 142.506,221.569 142.261,220.810 141.855 C 220.281 141.572,220.197 141.600,220.354 142.007 M172.893 149.468 C 172.469 149.873,172.353 150.028,172.636 149.812 C 172.919 149.597,173.516 149.274,173.963 149.096 C 174.503 148.881,174.589 148.765,174.220 148.751 C 173.914 148.740,173.318 149.062,172.893 149.468 M176.570 149.096 C 177.017 149.274,177.613 149.597,177.896 149.812 C 178.179 150.028,178.063 149.873,177.639 149.468 C 177.215 149.062,176.618 148.740,176.313 148.751 C 175.944 148.765,176.030 148.881,176.570 149.096 M212.728 149.056 C 212.341 149.212,211.933 149.488,211.822 149.668 C 211.655 149.937,213.427 149.233,213.896 148.844 C 214.141 148.640,213.447 148.766,212.728 149.056 M216.380 149.113 C 216.740 149.312,217.367 149.776,217.772 150.143 C 218.178 150.510,218.508 150.674,218.507 150.508 C 218.505 150.160,216.495 148.726,216.032 148.741 C 215.863 148.746,216.020 148.914,216.380 149.113 M211.057 152.498 C 211.061 153.219,211.128 153.475,211.206 153.067 C 211.285 152.660,211.282 152.070,211.200 151.757 C 211.118 151.444,211.054 151.777,211.057 152.498 M192.138 152.854 L 191.155 153.699 192.219 152.994 C 192.805 152.607,193.284 152.226,193.284 152.148 C 193.284 151.903,193.145 151.988,192.138 152.854 M217.752 154.654 C 216.747 156.052,215.780 156.452,214.157 156.141 C 213.406 155.997,213.245 156.031,213.595 156.261 C 214.224 156.673,215.762 156.684,216.515 156.281 C 217.135 155.949,218.982 153.680,218.788 153.487 C 218.725 153.423,218.259 153.949,217.752 154.654 M177.068 155.786 C 176.527 156.033,176.315 156.242,176.596 156.251 C 176.877 156.259,177.393 156.049,177.742 155.784 C 178.519 155.197,178.353 155.197,177.068 155.786 M191.308 159.124 C 191.502 159.526,191.990 160.013,192.391 160.207 C 193.069 160.536,193.078 160.526,192.521 160.077 C 192.191 159.812,191.704 159.324,191.438 158.995 C 190.989 158.437,190.980 158.446,191.308 159.124 M197.964 159.770 C 197.565 160.185,197.358 160.524,197.504 160.524 C 197.823 160.524,199.015 159.250,198.824 159.113 C 198.750 159.060,198.363 159.356,197.964 159.770 M152.416 159.767 C 152.731 159.850,153.247 159.850,153.563 159.767 C 153.878 159.685,153.620 159.617,152.989 159.617 C 152.359 159.617,152.101 159.685,152.416 159.767 M234.323 162.817 C 234.323 163.628,234.387 163.960,234.465 163.554 C 234.544 163.149,234.544 162.486,234.465 162.080 C 234.387 161.675,234.323 162.007,234.323 162.817 M155.708 162.980 C 155.690 163.611,155.808 164.044,155.970 163.944 C 156.335 163.718,156.364 161.835,156.003 161.835 C 155.858 161.835,155.725 162.350,155.708 162.980 M185.176 164.362 C 185.672 164.437,186.482 164.437,186.978 164.362 C 187.473 164.287,187.068 164.226,186.077 164.226 C 185.086 164.226,184.681 164.287,185.176 164.362 M182.428 165.130 L 181.654 165.805 182.637 165.229 C 183.931 164.472,183.950 164.455,183.547 164.455 C 183.357 164.455,182.853 164.759,182.428 165.130 M207.043 164.847 C 207.494 165.065,208.433 165.810,209.131 166.502 C 209.828 167.194,210.452 167.708,210.516 167.644 C 210.771 167.389,207.812 164.841,207.043 164.653 L 206.224 164.452 207.043 164.847 M234.964 165.115 C 235.388 165.802,236.720 166.337,237.089 165.969 C 237.200 165.857,236.972 165.766,236.582 165.766 C 236.192 165.766,235.872 165.654,235.872 165.517 C 235.872 165.380,235.574 165.082,235.210 164.854 C 234.593 164.469,234.576 164.488,234.964 165.115 M239.623 164.762 C 239.452 164.931,238.870 165.299,238.329 165.579 C 237.727 165.892,237.561 166.090,237.901 166.091 C 238.391 166.093,240.571 164.492,240.115 164.466 C 240.016 164.460,239.794 164.594,239.623 164.762 M150.041 164.882 C 150.041 165.231,152.264 166.420,152.864 166.393 C 153.305 166.373,153.239 166.291,152.633 166.108 C 152.167 165.967,151.393 165.594,150.914 165.279 C 150.434 164.965,150.041 164.786,150.041 164.882 M189.380 164.865 C 189.455 164.910,189.955 165.315,190.490 165.766 C 191.214 166.376,191.340 166.417,190.981 165.930 C 190.413 165.156,189.958 164.795,189.544 164.788 C 189.379 164.785,189.305 164.820,189.380 164.865 M199.017 165.813 L 198.362 166.476 199.263 166.068 C 199.758 165.844,200.164 165.537,200.164 165.386 C 200.164 164.938,199.717 165.104,199.017 165.813 M166.196 168.370 C 165.220 168.966,164.438 169.963,164.468 170.576 C 164.476 170.723,164.701 170.440,164.969 169.946 C 165.236 169.452,166.004 168.759,166.675 168.404 C 167.346 168.050,167.748 167.754,167.568 167.747 C 167.387 167.740,166.770 168.020,166.196 168.370 M170.745 168.400 C 171.411 168.752,172.120 169.299,172.320 169.614 C 172.565 170.002,172.642 170.029,172.557 169.697 C 172.418 169.154,170.465 167.723,169.894 167.746 C 169.696 167.754,170.078 168.048,170.745 168.400 M193.705 171.826 C 193.708 172.727,193.772 173.057,193.847 172.559 C 193.922 172.061,193.920 171.324,193.842 170.921 C 193.765 170.518,193.703 170.925,193.705 171.826 M196.326 172.154 C 196.329 173.055,196.392 173.385,196.468 172.887 C 196.543 172.389,196.541 171.651,196.463 171.249 C 196.385 170.846,196.324 171.253,196.326 172.154 M164.210 172.154 C 164.214 172.875,164.281 173.131,164.359 172.723 C 164.438 172.316,164.435 171.726,164.353 171.413 C 164.271 171.100,164.207 171.433,164.210 172.154 M173.049 171.990 C 173.049 172.621,173.116 172.879,173.199 172.563 C 173.281 172.248,173.281 171.732,173.199 171.417 C 173.116 171.102,173.049 171.360,173.049 171.990 M216.954 172.154 C 216.958 172.875,217.025 173.131,217.103 172.723 C 217.181 172.316,217.179 171.726,217.097 171.413 C 217.015 171.100,216.950 171.433,216.954 172.154 M225.717 172.173 C 225.717 172.867,225.849 173.257,226.044 173.137 C 226.224 173.025,226.372 172.501,226.372 171.971 C 226.372 171.441,226.224 171.007,226.044 171.007 C 225.864 171.007,225.717 171.532,225.717 172.173 M218.806 175.836 C 219.178 176.558,220.640 177.176,221.036 176.780 C 221.148 176.668,220.926 176.577,220.542 176.577 C 220.159 176.577,219.527 176.245,219.137 175.839 L 218.429 175.102 218.806 175.836 M180.536 177.434 C 180.971 177.996,181.393 178.397,181.473 178.325 C 181.554 178.253,181.198 177.794,180.682 177.304 L 179.745 176.413 180.536 177.434 M207.207 179.045 C 206.384 179.442,206.358 179.486,207.043 179.321 C 207.494 179.213,208.002 178.993,208.174 178.833 C 208.598 178.436,208.365 178.487,207.207 179.045 M185.346 179.762 C 185.935 179.835,186.819 179.834,187.311 179.759 C 187.804 179.684,187.322 179.625,186.241 179.626 C 185.160 179.628,184.757 179.689,185.346 179.762 M203.364 179.762 C 203.953 179.835,204.837 179.834,205.329 179.759 C 205.822 179.684,205.340 179.625,204.259 179.626 C 203.178 179.628,202.775 179.689,203.364 179.762 M175.758 180.180 C 175.633 180.382,176.197 180.508,177.232 180.508 C 178.266 180.508,178.831 180.382,178.706 180.180 C 178.595 180.000,177.931 179.853,177.232 179.853 C 176.532 179.853,175.869 180.000,175.758 180.180 M211.159 180.147 C 211.058 180.310,211.860 180.442,212.940 180.442 C 214.021 180.442,214.822 180.310,214.722 180.147 C 214.622 179.985,213.820 179.853,212.940 179.853 C 212.061 179.853,211.259 179.985,211.159 180.147 M209.112 181.081 C 208.768 181.396,208.649 181.550,208.847 181.422 C 209.046 181.294,209.569 181.045,210.009 180.869 C 210.516 180.667,210.613 180.542,210.274 180.529 C 209.978 180.517,209.456 180.766,209.112 181.081 M217.854 181.914 C 218.124 182.148,218.548 182.554,218.795 182.816 C 219.180 183.224,219.193 183.192,218.886 182.594 C 218.689 182.210,218.266 181.804,217.945 181.692 C 217.438 181.515,217.426 181.544,217.854 181.914 M232.143 185.002 C 231.511 185.673,231.053 186.281,231.126 186.354 C 231.199 186.427,231.658 186.012,232.147 185.432 C 232.635 184.852,233.341 184.253,233.716 184.101 C 234.245 183.887,234.274 183.821,233.845 183.805 C 233.541 183.793,232.775 184.332,232.143 185.002 M152.969 185.121 L 151.843 186.116 152.989 185.361 C 153.620 184.945,154.197 184.568,154.272 184.522 C 154.348 184.476,154.338 184.368,154.252 184.282 C 154.166 184.196,153.588 184.573,152.969 185.121 M246.845 186.079 C 246.518 186.440,246.312 186.798,246.389 186.874 C 246.465 186.951,246.846 186.655,247.235 186.217 C 247.625 185.780,247.830 185.422,247.692 185.422 C 247.553 185.422,247.172 185.718,246.845 186.079 M184.871 188.043 C 184.871 189.214,184.931 189.693,185.004 189.107 C 185.076 188.522,185.076 187.563,185.004 186.978 C 184.931 186.392,184.871 186.871,184.871 188.043 M205.507 187.879 C 205.509 188.960,205.570 189.363,205.643 188.774 C 205.716 188.185,205.714 187.300,205.639 186.808 C 205.565 186.316,205.505 186.798,205.507 187.879 M151.725 188.004 C 151.658 190.090,153.639 192.743,154.570 191.813 C 154.644 191.739,154.349 191.589,153.914 191.480 C 152.850 191.213,152.238 190.176,151.983 188.206 L 151.771 186.568 151.725 188.004 M230.713 187.879 C 230.717 188.600,230.784 188.856,230.862 188.448 C 230.941 188.041,230.938 187.451,230.856 187.138 C 230.774 186.825,230.710 187.158,230.713 187.879 M159.296 188.206 C 159.300 188.927,159.367 189.183,159.445 188.776 C 159.524 188.368,159.521 187.779,159.439 187.465 C 159.357 187.152,159.293 187.486,159.296 188.206 M183.862 191.400 L 183.469 192.465 184.111 191.646 C 184.793 190.774,184.927 190.336,184.511 190.336 C 184.370 190.336,184.078 190.815,183.862 191.400 M219.574 191.400 C 219.222 192.363,219.231 192.404,219.666 191.829 C 220.083 191.279,220.329 190.336,220.055 190.336 C 220.005 190.336,219.788 190.815,219.574 191.400 M236.802 190.987 C 236.735 191.187,235.946 191.485,235.048 191.650 L 233.415 191.948 235.000 191.834 C 236.499 191.726,237.529 191.228,237.113 190.812 C 237.009 190.708,236.869 190.786,236.802 190.987 M170.688 192.301 C 171.107 193.203,172.565 194.482,173.513 194.781 C 174.025 194.942,174.017 194.911,173.464 194.586 C 173.104 194.374,172.246 193.589,171.558 192.842 C 170.651 191.855,170.412 191.707,170.688 192.301 M218.182 193.556 C 217.440 194.279,217.431 194.320,218.082 193.981 C 218.477 193.776,218.897 193.452,219.015 193.261 C 219.418 192.608,219.002 192.756,218.182 193.556 M216.134 194.693 C 215.639 194.888,215.233 195.168,215.233 195.313 C 215.233 195.738,215.666 195.609,216.544 194.922 C 217.460 194.206,217.421 194.184,216.134 194.693 M212.209 195.815 C 212.798 195.888,213.682 195.886,214.175 195.811 C 214.667 195.737,214.185 195.677,213.104 195.679 C 212.023 195.681,211.620 195.742,212.209 195.815 M185.508 196.140 C 186.006 196.215,186.743 196.213,187.146 196.136 C 187.549 196.058,187.142 195.996,186.241 195.999 C 185.340 196.001,185.010 196.065,185.508 196.140 M202.621 196.070 C 203.371 196.329,206.711 196.432,206.321 196.184 C 206.087 196.036,205.086 195.924,204.095 195.936 C 203.104 195.947,202.441 196.008,202.621 196.070 M200.446 196.877 C 200.020 197.231,199.857 197.526,200.082 197.532 C 200.307 197.538,200.491 197.418,200.491 197.265 C 200.491 197.113,200.823 196.828,201.229 196.632 C 201.634 196.437,201.798 196.267,201.592 196.255 C 201.387 196.243,200.871 196.523,200.446 196.877 M189.347 196.803 C 189.614 196.907,189.999 197.154,190.202 197.350 C 191.520 198.624,193.023 199.882,192.918 199.625 C 192.668 199.016,189.759 196.561,189.316 196.586 C 188.957 196.606,188.964 196.652,189.347 196.803 M208.681 197.646 C 208.681 197.702,209.161 198.181,209.746 198.710 L 210.811 199.672 209.849 198.608 C 208.952 197.615,208.681 197.392,208.681 197.646 M168.308 199.085 C 168.716 199.163,169.306 199.160,169.619 199.078 C 169.932 198.996,169.599 198.932,168.878 198.936 C 168.157 198.940,167.901 199.007,168.308 199.085 M179.568 200.000 C 179.196 200.631,179.007 201.147,179.148 201.147 C 179.288 201.147,179.650 200.631,179.950 200.000 C 180.251 199.369,180.440 198.853,180.371 198.853 C 180.302 198.853,179.940 199.369,179.568 200.000 M218.509 200.232 C 217.879 200.774,217.658 201.057,218.018 200.860 C 219.008 200.320,219.953 199.532,219.796 199.380 C 219.719 199.306,219.140 199.689,218.509 200.232 M223.096 199.307 C 223.096 199.376,223.501 199.694,223.997 200.013 L 224.898 200.593 224.274 199.887 C 223.721 199.262,223.096 198.954,223.096 199.307 M225.509 201.910 C 225.623 202.241,225.717 203.097,225.717 203.814 C 225.717 204.599,225.847 205.036,226.044 204.914 C 226.552 204.600,226.411 202.696,225.826 201.966 C 225.365 201.390,225.326 201.383,225.509 201.910 M193.717 204.095 C 193.717 205.266,193.776 205.745,193.849 205.160 C 193.921 204.574,193.921 203.616,193.849 203.030 C 193.776 202.445,193.717 202.924,193.717 204.095 M173.062 203.767 C 173.062 204.578,173.126 204.910,173.204 204.505 C 173.282 204.099,173.282 203.436,173.204 203.030 C 173.126 202.625,173.062 202.957,173.062 203.767 M196.315 203.931 C 196.319 204.652,196.386 204.908,196.464 204.501 C 196.543 204.093,196.540 203.503,196.458 203.190 C 196.376 202.877,196.312 203.210,196.315 203.931 M172.017 206.847 C 171.807 207.100,171.273 207.398,170.830 207.509 C 170.052 207.704,169.685 208.354,170.352 208.354 C 170.532 208.354,170.680 208.206,170.680 208.026 C 170.680 207.846,170.878 207.699,171.120 207.699 C 171.363 207.699,171.828 207.404,172.154 207.043 C 172.480 206.683,172.668 206.388,172.572 206.388 C 172.477 206.388,172.226 206.595,172.017 206.847 M193.010 207.221 C 192.461 208.426,192.566 208.683,193.159 207.588 C 193.436 207.076,193.602 206.597,193.527 206.522 C 193.452 206.447,193.219 206.762,193.010 207.221 M179.853 208.182 C 179.853 208.568,181.653 210.647,181.982 210.642 C 182.196 210.639,182.194 210.553,181.977 210.396 C 181.794 210.264,181.241 209.665,180.748 209.066 C 180.256 208.466,179.853 208.069,179.853 208.182 M209.442 209.091 C 209.077 209.496,208.670 210.049,208.538 210.319 C 208.405 210.590,208.589 210.452,208.946 210.013 C 209.303 209.573,209.860 209.021,210.184 208.784 C 210.507 208.547,210.622 208.354,210.439 208.354 C 210.256 208.354,209.807 208.686,209.442 209.091 M190.973 209.910 L 189.844 211.138 191.073 210.009 C 191.749 209.389,192.301 208.836,192.301 208.781 C 192.301 208.531,192.024 208.766,190.973 209.910 M152.007 209.992 C 152.007 210.172,152.449 210.319,152.989 210.319 C 153.530 210.319,153.972 210.172,153.972 209.992 C 153.972 209.812,153.530 209.664,152.989 209.664 C 152.449 209.664,152.007 209.812,152.007 209.992 M199.181 209.960 C 199.181 210.345,201.120 211.438,201.366 211.192 C 201.452 211.106,201.219 210.938,200.846 210.819 C 200.473 210.701,199.946 210.382,199.674 210.111 C 199.403 209.839,199.181 209.772,199.181 209.960 M235.381 210.379 L 234.726 211.054 235.790 210.515 C 236.903 209.951,237.140 209.651,236.446 209.684 C 236.220 209.694,235.741 210.007,235.381 210.379 M238.165 209.992 C 238.165 210.172,238.340 210.319,238.554 210.319 C 238.767 210.319,239.320 210.651,239.782 211.055 C 240.457 211.647,240.433 211.582,239.660 210.728 C 238.686 209.651,238.165 209.395,238.165 209.992 M234.310 212.940 C 234.310 213.571,234.378 213.829,234.460 213.514 C 234.542 213.198,234.542 212.682,234.460 212.367 C 234.378 212.052,234.310 212.310,234.310 212.940 M155.670 214.299 C 155.480 214.777,154.992 215.400,154.586 215.684 C 154.180 215.969,153.923 216.276,154.014 216.368 C 154.312 216.666,156.344 214.320,156.177 213.869 C 156.075 213.593,155.888 213.752,155.670 214.299 M240.157 214.225 C 240.143 214.481,239.879 214.997,239.570 215.371 C 239.041 216.014,239.052 216.012,239.772 215.349 C 240.192 214.963,240.457 214.447,240.359 214.203 C 240.216 213.843,240.178 213.848,240.157 214.225 M196.607 215.312 C 197.083 215.541,197.796 216.096,198.191 216.546 L 198.910 217.363 198.204 216.298 C 197.816 215.713,197.373 215.233,197.220 215.233 C 197.067 215.233,196.671 215.157,196.341 215.065 C 196.011 214.972,196.131 215.083,196.607 215.312 M236.391 216.261 C 236.487 216.416,236.991 216.544,237.510 216.544 C 238.030 216.544,238.533 216.416,238.629 216.261 C 238.725 216.105,238.222 215.978,237.510 215.978 C 236.799 215.978,236.295 216.105,236.391 216.261 M190.418 219.656 C 190.422 220.377,190.489 220.633,190.567 220.226 C 190.646 219.818,190.643 219.228,190.561 218.915 C 190.479 218.602,190.415 218.935,190.418 219.656 M173.379 219.710 C 173.151 219.802,172.812 220.196,172.624 220.585 C 172.316 221.224,172.327 221.238,172.739 220.729 C 172.990 220.419,173.551 220.023,173.985 219.849 C 174.420 219.676,174.554 219.536,174.283 219.539 C 174.013 219.542,173.606 219.619,173.379 219.710 M198.018 222.584 C 197.730 223.023,197.053 223.479,196.513 223.598 C 195.973 223.716,195.597 223.880,195.679 223.962 C 196.056 224.339,197.617 223.584,198.224 222.732 C 198.595 222.211,198.818 221.785,198.719 221.785 C 198.621 221.785,198.306 222.145,198.018 222.584 M178.870 223.260 C 178.870 223.890,179.017 224.406,179.197 224.406 C 179.378 224.406,179.525 223.890,179.525 223.260 C 179.525 222.629,179.378 222.113,179.197 222.113 C 179.017 222.113,178.870 222.629,178.870 223.260 M171.663 224.477 C 171.663 225.079,173.502 227.355,173.990 227.355 C 174.550 227.355,174.280 226.853,173.546 226.531 C 173.141 226.354,172.551 225.692,172.236 225.061 C 171.921 224.431,171.663 224.168,171.663 224.477 M211.630 225.555 C 211.630 225.809,213.945 227.442,214.094 227.293 C 214.178 227.209,213.658 226.755,212.938 226.284 C 212.219 225.813,211.630 225.485,211.630 225.555 M221.458 233.251 C 221.458 233.432,221.255 233.579,221.007 233.579 C 220.758 233.579,220.375 233.796,220.155 234.062 C 219.820 234.465,219.924 234.459,220.788 234.028 C 221.357 233.745,222.118 233.589,222.478 233.684 C 223.014 233.824,223.063 233.771,222.747 233.389 C 222.303 232.855,221.458 232.765,221.458 233.251 M192.824 235.708 C 192.338 236.159,192.072 236.527,192.234 236.527 C 192.395 236.527,192.787 236.241,193.104 235.891 C 193.421 235.540,193.997 235.192,194.383 235.116 C 195.082 234.979,195.082 234.978,194.397 234.934 C 194.018 234.910,193.310 235.258,192.824 235.708 M195.741 235.205 C 196.102 235.356,196.728 235.795,197.133 236.180 C 197.539 236.565,197.871 236.755,197.871 236.602 C 197.871 236.210,196.020 234.885,195.509 234.910 C 195.276 234.922,195.381 235.054,195.741 235.205 M219.568 235.872 C 219.568 236.503,219.636 236.761,219.718 236.446 C 219.800 236.130,219.800 235.614,219.718 235.299 C 219.636 234.984,219.568 235.242,219.568 235.872 M224.482 235.872 C 224.482 236.503,224.550 236.761,224.632 236.446 C 224.714 236.130,224.714 235.614,224.632 235.299 C 224.550 234.984,224.482 235.242,224.482 235.872 M170.718 235.927 C 170.697 236.228,170.595 236.744,170.491 237.074 C 170.313 237.643,170.322 237.644,170.677 237.090 C 170.883 236.769,170.985 236.253,170.904 235.944 C 170.770 235.437,170.752 235.435,170.718 235.927 M165.766 236.706 C 165.766 236.803,166.155 237.283,166.631 237.770 L 167.496 238.657 166.772 237.592 C 166.089 236.586,165.766 236.302,165.766 236.706 " stroke="none" fill="#a6e8e8" fill-rule="evenodd"></path></g></svg>